<svg width="22" height="22" viewBox="0 0 22 22" fill="none" xmlns="http://www.w3.org/2000/svg">
<path d="M11 0C4.95 0 0 4.95 0 11C0 17.05 4.95 22 11 22C17.05 22 22 17.05 22 11C22 4.95 17.05 0 11 0ZM11 19.8C6.16 19.8 2.2 15.84 2.2 11C2.2 6.16 6.16 2.2 11 2.2C15.84 2.2 19.8 6.16 19.8 11C19.8 15.84 15.84 19.8 11 19.8Z" fill="white"/>
<path d="M11 7.7C11.88 7.7 12.76 8.03 13.31 8.69L14.85 7.15C13.86 6.05 12.43 5.5 11 5.5C7.92 5.5 5.5 7.92 5.5 11C5.5 14.08 7.92 16.5 11 16.5C12.43 16.5 13.86 15.95 14.85 14.85L13.31 13.31C12.65 13.97 11.88 14.3 11 14.3C9.13 14.3 7.7 12.87 7.7 11C7.7 9.13 9.13 7.7 11 7.7Z" fill="white"/>
</svg>
